<?xml version="1.0" encoding="utf-8"?>
<!-- Generator: Adobe Illustrator 23.0.3, SVG Export Plug-In . SVG Version: 6.00 Build 0)  -->
<svg version="1.1" id="Layer_1" xmlns="http://www.w3.org/2000/svg" xmlns:xlink="http://www.w3.org/1999/xlink" x="0px" y="0px"
	 viewBox="0 0 150 100" style="enable-background:new 0 0 150 100;" xml:space="preserve">
<style type="text/css">
	.st0{fill:#FFFFFF;}
	.st1{fill:#00B4EF;}
</style>
<title>RSI Icon</title>
<path class="st0" d="M98.6,33.5c-3-4.6-6.5-6.9-13.4-6.9c-6.2,0-9.5,2.9-9.5,7.5c0,5.3,4.3,7.7,13.3,10c14.2,3.5,20.6,8.8,20.6,20.9
	c0,11.1-7.5,19.8-23.4,19.8C74.3,84.6,66,81.4,60,73.5l10.5-7.3c3.7,4.5,7.8,6.8,14.8,6.8c7.9,0,10.5-3.4,10.5-7.6
	c0-4.7-2.8-7.4-13.9-10.2c-13.3-3.5-20-9.9-20-21.2c0-10.7,7.1-19,23.2-19c10.8,0,19,3.6,23.8,11.1L98.6,33.5z"/>
<path class="st0" d="M44.6,54.8c7.4-3,11.6-9,11.6-18.2c0-13.8-9.7-20.8-25.4-20.8H20.3v11.7h9.2c8.2,0,12.9,2,12.9,9.1
	s-4.7,8.8-12.9,8.8h-9.2V27.6H6.5v56.1h13.8V57.1h11l12.2,26.7h15.2L44.6,54.8z"/>
<rect x="116.9" y="27.6" class="st0" width="13.8" height="56.1"/>
<rect x="130.7" y="15.9" class="st1" width="13.8" height="11.8"/>
</svg>
